PathFileType  4	(X/Y/Z) C:\Users\antoi\Documents\MyRepositories\mobilecap\ResultsAnalysis
DataRate	CameraRate	NumFrames	NumMarkers	Units	OrigDataRate	OrigDataStartFrame	OrigNumFrames
100.0	100.0	6	51	mm	100.0	166	265
Frame#	Time	r_knee			r_shank_antsup			r_ankle			r_calc			r_5meta			r_toe			L_knee			L_shank_antsup			L_ankle			L_calc			L_5meta			L_toe			r_sh2			r_sh3			r_sh4			L_sh2			L_sh3			r_thigh1			r_thigh2			r_thigh3			r_thigh4			r_thigh5			L_thigh1			L_thigh2			L_thigh3			L_thigh4			r.ASIS			r.PSIS			L.ASIS			L.PSIS			C7			R_Shoulder			L_Shoulder			R_Sternum			L_Sternum			R_humerus			R_elbow_med			R_elbow_lat			R_forearm			R_wrist_radius			R_wrist_ulna			L_humerus			L_elbow_med			L_elbow_lat			L_forearm			L_wrist_radius			L_wrist_ulna			R_HJC			L_HJC			R_HJC_reg			L_HJC_reg			
		X1	Y1	Z1	X2	Y2	Z2	X3	Y3	Z3	X4	Y4	Z4	X5	Y5	Z5	X6	Y6	Z6	X7	Y7	Z7	X8	Y8	Z8	X9	Y9	Z9	X10	Y10	Z10	X11	Y11	Z11	X12	Y12	Z12	X13	Y13	Z13	X14	Y14	Z14	X15	Y15	Z15	X16	Y16	Z16	X17	Y17	Z17	X18	Y18	Z18	X19	Y19	Z19	X20	Y20	Z20	X21	Y21	Z21	X22	Y22	Z22	X23	Y23	Z23	X24	Y24	Z24	X25	Y25	Z25	X26	Y26	Z26	X27	Y27	Z27	X28	Y28	Z28	X29	Y29	Z29	X30	Y30	Z30	X31	Y31	Z31	X32	Y32	Z32	X33	Y33	Z33	X34	Y34	Z34	X35	Y35	Z35	X36	Y36	Z36	X37	Y37	Z37	X38	Y38	Z38	X39	Y39	Z39	X40	Y40	Z40	X41	Y41	Z41	X42	Y42	Z42	X43	Y43	Z43	X44	Y44	Z44	X45	Y45	Z45	X46	Y46	Z46	X47	Y47	Z47	X48	Y48	Z48	X49	Y49	Z49	X50	Y50	Z50	X51	Y51	Z51	

166	1.65000000	-8.39140	463.73323	-419.86789	-2.09758	341.32796	-440.85396	-254.22841	115.15459	-446.62382	-336.16276	89.34376	-501.54742	-152.05897	38.21351	-394.27421	-100.26367	56.17660	-462.72242	-64.62821	452.06637	-855.27829	-34.23763	343.35899	-831.83484	-285.36094	105.82660	-776.61439	-358.49315	86.25190	-712.28076	-175.74008	36.44593	-819.54055	-128.80881	53.57869	-755.68907	-65.06379	245.72565	-470.26969	-58.05149	360.15713	-390.57099	-112.55103	257.57962	-401.02398	-107.16606	378.10367	-872.15340	-148.38130	265.41291	-864.67381	-157.92773	669.13033	-443.57885	-59.19206	615.22623	-453.97186	-47.79457	576.89833	-399.70212	-189.01065	597.35021	-361.55659	-82.11247	539.15137	-379.59527	-229.09142	655.16026	-826.52048	-106.86746	593.83905	-846.82464	-281.33812	560.41079	-861.78518	-160.41521	498.14821	-875.73340	-289.71469	725.13888	-469.43596	-424.61212	808.37713	-532.84627	-301.40596	702.88435	-730.44657	-434.69100	807.35357	-634.32554	-6.68579	1096.67639	-627.06747	6.57700	982.42244	-445.41890	6.18207	987.95300	-790.34761	43.64866	934.64096	-600.32809	39.82056	935.88663	-644.69423	-56.78719	841.60139	-365.42337	-230.37293	680.64087	-343.10957	-181.02790	696.21557	-276.95798	-136.52122	525.30773	-291.24013	-134.20533	404.14404	-296.25700	-144.08168	403.60022	-254.54658	-55.15215	844.64542	-880.37876	-205.66069	665.80754	-875.86849	-166.46741	684.78648	-945.95910	-86.66553	535.81367	-929.66874	-62.77297	425.06361	-955.62942	-97.21818	415.84244	-984.45708	-375.74029	669.16767	-488.26673	-397.01483	648.26144	-699.56137	-376.22358	667.16827	-497.16054	-393.32920	665.43253	-669.37471	
167	1.66000000	-6.33934	464.63791	-419.57202	-0.37686	341.85593	-440.87111	-253.13690	116.46646	-446.51754	-335.42244	91.45224	-501.92203	-151.76922	38.37096	-394.41316	-99.83002	56.22279	-462.84708	-58.35045	455.63468	-852.96310	-30.73738	344.15180	-829.55149	-284.40587	108.16624	-776.70866	-357.79243	89.15173	-712.35817	-175.39872	36.70536	-819.33947	-128.74765	53.76561	-755.75364	-63.09670	247.67925	-469.72550	-56.12482	361.64575	-390.33474	-111.12471	258.56142	-400.96707	-102.97360	380.20859	-873.15098	-146.46794	266.38258	-864.49510	-156.57612	670.15190	-443.81831	-57.11743	615.67051	-453.91689	-45.87948	577.57255	-399.83811	-187.11278	596.63942	-361.29006	-80.63674	540.42003	-379.34832	-225.40035	653.97642	-822.27356	-100.72012	594.89306	-843.28750	-276.90926	561.25808	-860.95178	-154.74286	500.21663	-876.12747	-288.03562	726.49151	-469.46067	-423.84215	809.53387	-533.82287	-299.02041	703.82263	-730.54291	-433.57843	808.15359	-635.43201	-10.00713	1102.47676	-626.80882	5.73398	988.55523	-446.35849	6.34644	995.29454	-789.14060	43.22472	940.85174	-600.29286	39.51729	942.62221	-644.33391	-45.67027	847.85772	-362.81441	-200.49270	668.34768	-341.00895	-154.65577	690.85147	-274.64418	-83.99328	528.15646	-294.31876	-62.74477	410.22367	-303.79765	-71.39216	406.93841	-261.88035	-43.15394	851.67795	-882.02796	-176.69233	660.23701	-882.20391	-138.10201	683.38762	-951.39174	-38.66581	546.99358	-926.34731	3.15240	442.03195	-949.18623	-27.49346	426.43901	-979.07359	-374.23216	670.42427	-488.64350	-394.62732	648.91358	-699.96647	-374.51820	668.41110	-497.31220	-391.03073	666.07117	-669.62649	
168	1.67000000	-5.05808	466.55243	-418.71850	0.94124	342.95534	-440.50619	-252.22215	117.99478	-446.49656	-334.29501	93.49203	-502.18850	-151.53175	38.72850	-394.46161	-99.46317	56.36596	-462.86675	-53.13070	457.89823	-852.04303	-27.81105	345.03147	-828.15025	-283.48677	110.71655	-776.85065	-356.71328	91.98604	-712.62512	-175.01868	37.09796	-819.29425	-128.86810	54.20000	-756.01745	-61.47269	249.26886	-469.19215	-54.73647	362.66663	-390.27679	-109.68731	259.05267	-401.27220	-99.70584	381.63864	-872.71136	-143.51361	268.15035	-863.21017	-154.80118	670.63687	-443.95563	-55.54582	616.30049	-454.31356	-44.91108	578.91702	-400.08310	-184.25319	595.84901	-362.35082	-81.14308	541.98973	-379.25565	-220.90192	655.27975	-822.15233	-94.71988	596.24745	-840.35134	-272.36349	562.22515	-859.49544	-150.09210	501.28356	-874.07543	-286.10219	727.26198	-468.60040	-423.31454	811.34605	-534.93123	-296.30479	704.10841	-730.10553	-432.71072	809.94239	-636.54893	-14.32768	1109.75330	-626.40383	4.99662	996.98948	-447.36151	5.71474	1005.16511	-787.84616	42.48675	948.82158	-600.20812	38.87282	951.29753	-643.59731	-34.37815	857.07663	-360.90300	-169.76858	661.92985	-338.64369	-127.01500	690.30414	-272.17051	-31.83182	539.84654	-299.47651	7.73336	428.49606	-314.48910	0.91725	422.59181	-272.46391	-30.94765	861.98211	-883.28628	-145.31480	658.09795	-888.99590	-107.72919	685.76812	-955.96956	8.96416	565.31303	-921.85234	67.43660	468.22698	-939.90823	41.90238	448.23770	-971.83497	-373.45901	671.97433	-488.63286	-392.59243	649.73127	-699.99673	-373.00348	669.16561	-496.73785	-388.96511	666.78065	-669.38168	
169	1.68000000	-4.18743	468.62509	-418.36763	2.25067	344.33954	-440.08703	-251.50823	119.74183	-446.68937	-333.19578	95.71454	-502.47829	-151.38267	39.14523	-394.57775	-99.11826	56.50464	-462.82856	-50.66577	457.63654	-850.94359	-25.19947	346.17496	-826.30248	-282.37861	113.15066	-777.00881	-355.63113	94.90718	-713.09446	-174.57535	37.61230	-819.38061	-128.78242	54.63064	-756.02293	-60.35248	249.48346	-469.03018	-53.59380	363.32684	-390.28570	-108.40424	259.96718	-401.44746	-96.61760	382.97370	-869.17536	-140.52279	270.24050	-861.33086	-152.52986	671.81260	-444.20047	-53.93767	617.92244	-454.75913	-44.01529	581.36598	-400.03243	-181.57437	596.33950	-364.46228	-80.90225	544.13282	-377.82801	-216.06794	657.45067	-821.99982	-90.45770	597.17851	-838.57260	-267.52786	563.65016	-857.55632	-145.47942	502.45730	-871.94469	-283.83504	728.38410	-467.74624	-423.04993	813.71639	-536.07011	-293.09726	705.20112	-729.58999	-431.97899	812.30347	-637.61996	-19.49622	1118.47003	-625.90417	4.18331	1007.81632	-448.20857	4.57404	1017.40061	-786.48530	41.40649	958.85744	-600.32939	37.83583	961.99624	-642.98206	-22.99089	868.96504	-359.56187	-137.95009	660.05822	-336.35419	-97.47396	693.95025	-269.91795	19.34201	560.16012	-306.53751	75.25168	458.40108	-327.64043	71.18315	450.05562	-285.67062	-18.59452	875.48294	-884.05485	-111.40997	660.07175	-894.99890	-75.80760	692.58361	-959.55591	55.24479	591.04394	-916.06170	128.51489	503.69739	-927.24411	109.21420	481.02671	-962.15070	-372.47556	673.91889	-488.74473	-390.14718	651.20995	-700.18306	-371.21397	670.45012	-496.27546	-386.41779	668.04444	-669.19320	
170	1.69000000	-2.80669	469.55327	-419.19311	3.59244	345.55123	-439.70990	-250.75330	121.50649	-447.00992	-332.17601	98.08330	-503.06384	-151.20257	39.33569	-395.06002	-98.68629	56.51641	-462.82505	-48.34334	457.79263	-848.85196	-22.24037	347.78978	-823.10744	-281.08368	115.49142	-777.00174	-354.60826	97.91057	-713.56358	-174.08143	38.04918	-819.38579	-128.35859	54.82384	-755.71582	-59.36385	249.71401	-469.11360	-52.63609	364.58637	-390.11467	-107.63132	261.61637	-401.38035	-93.34897	384.31623	-864.13161	-137.87878	272.35653	-859.69222	-149.74239	673.86819	-444.88800	-51.52081	620.45360	-454.81520	-42.17053	584.11302	-399.59747	-179.75397	598.77561	-365.45654	-78.10116	546.15415	-376.83001	-211.16813	659.56148	-820.52609	-87.10464	597.95275	-837.44440	-262.54283	565.77846	-855.99509	-140.62398	504.20054	-870.20410	-280.90184	730.25827	-468.46405	-422.97702	816.76688	-537.13362	-290.14021	708.69261	-730.17961	-431.39672	815.25210	-638.72458	-25.25122	1128.65362	-625.40766	3.07102	1020.56170	-449.10503	3.12965	1031.45513	-784.78538	39.97625	970.84597	-600.65933	35.99148	973.86452	-642.78576	-11.20365	883.35836	-358.83766	-104.08425	662.61174	-334.18358	-65.60557	701.75846	-268.07556	68.70877	588.64732	-315.17657	137.94495	498.77820	-342.81925	137.90276	488.98460	-300.60019	-6.03985	892.03354	-884.24977	-75.96741	667.30057	-899.78321	-42.46112	704.74306	-962.72616	99.26273	623.92655	-908.80473	185.45160	548.66252	-911.73812	172.66485	524.24861	-949.84307	-370.50143	676.26286	-490.01424	-387.50376	654.27324	-701.58230	-368.99805	673.19844	-497.36413	-383.32317	670.62230	-670.18621	
171	1.70000000	-0.97300	469.79166	-420.57027	4.70549	346.91603	-439.40133	-249.80398	123.21576	-447.34610	-331.08747	100.54049	-503.83417	-150.90557	39.56911	-395.68709	-98.15932	56.55406	-462.87075	-44.57808	459.62019	-845.79934	-19.18701	349.52568	-819.14696	-279.77860	117.91716	-776.75630	-353.44394	100.88551	-713.96964	-173.56823	38.21577	-819.12413	-127.87136	54.83316	-755.40729	-58.18735	251.00763	-469.44866	-51.94413	366.50590	-390.18253	-107.07703	263.57046	-401.36192	-89.97462	386.09188	-860.53437	-135.21068	274.49187	-858.00327	-146.57530	676.48108	-445.84765	-48.28937	623.22102	-454.64591	-39.34735	586.10283	-399.31823	-178.12569	602.58779	-365.43080	-74.45597	547.65666	-378.47213	-206.08660	662.22079	-819.08467	-82.88180	599.33724	-835.43427	-257.46826	568.77004	-855.09085	-135.85399	506.51458	-868.24931	-277.09407	733.43286	-470.41894	-422.93102	820.74336	-538.27491	-287.53180	714.50925	-731.92103	-430.78180	819.05794	-639.96577	-31.32425	1140.25438	-625.08727	1.61159	1034.78463	-450.24989	1.59899	1047.10558	-782.82621	38.22356	984.54385	-601.00973	33.50297	986.57237	-643.00505	1.20540	900.17361	-359.09831	-67.84891	671.19891	-331.96568	-31.66803	714.52749	-266.42685	115.30142	624.90338	-324.85141	194.61137	548.52786	-359.41568	199.60873	538.65705	-316.66773	6.81294	911.52375	-883.86285	-39.95182	680.31794	-903.97585	-7.96387	722.60863	-965.51754	140.56680	663.49275	-900.22176	237.06416	602.53092	-894.80405	230.77065	576.97329	-935.25626	-367.43892	679.50247	-492.21485	-384.65637	658.95047	-703.91284	-366.28646	677.37027	-499.72845	-379.61551	674.50904	-672.37540	
